<svg width="76" height="75" viewBox="0 0 76 75" fill="none" xmlns="http://www.w3.org/2000/svg">
<path d="M22.4992 47.3933C21.8981 46.8793 18.8116 43.6215 15.5045 37.4467C13.2363 33.2118 15.6154 29.1214 16.9077 27.6514C17.9201 26.4998 19.2983 26.1476 21.4665 26.0349C25.1946 25.8411 28.088 26.4648 29.0945 27.6108C31.3168 30.141 30.4622 38.7988 28.5383 45.6138C27.7263 48.4899 25.3473 49.9137 24.1859 50.7265C23.6114 51.1286 22.9098 51.2779 22.7145 51.0239C21.0676 48.8824 28.5013 42.2906 34.8797 37.1233C38.7236 34.0092 44.2114 34.8748 48.134 36.2484C50.5538 37.0957 51.468 39.5093 51.8916 41.1968C52.4599 43.4602 51.4993 45.5783 50.1873 46.9986C47.4055 50.0102 37.7896 50.9198 28.1795 51.33C26.7865 51.3894 26.1966 50.8967 26.6831 50.8694C34.531 50.4282 43.9898 55.187 46.3756 57.3447C46.9656 57.8784 47.1975 58.6483 47.3994 59.5337C47.6014 60.4191 47.6434 61.5 46.7979 62.8363C44.7365 66.0941 41.0886 68.1431 38.6655 69.4118C36.9538 70.308 35.0037 70.0577 33.1229 69.8551C31.425 69.6722 30.0515 68.3156 28.6569 66.8051C24.5924 62.4026 24.6966 55.8123 24.6812 54.0845C24.6647 52.2454 25.1753 60.7368 24.4509 64.624C23.5314 69.5586 16.9947 71.7895 12.2351 73.359C11.1572 73.7144 9.90732 73.5786 9.0389 73.3457C6.11076 72.5602 5.34026 68.7119 4.81334 64.6055C4.20327 59.8512 5.06449 55.8917 5.63172 54.1899C6.79168 50.7097 12.252 50.0573 16.4421 49.8898C23.6157 49.6029 3.0331 49.3197 2.29157 48.0901C0.369498 44.9031 0.715399 36.9516 2.5197 33.1433C4.11064 29.7853 10.1032 31.5009 12.752 31.7735C16.2418 32.1325 17.3234 37.7252 19.0538 41.2574C19.988 42.8453 21.0058 44.7155 21.9403 46.7152C22.3394 47.6067 22.586 48.2478 22.9779 49.0542" stroke="#EDFB86" stroke-width="2" stroke-linecap="round"/>
<path d="M25.2147 51.7361C24.2435 51.421 21.572 49.6173 19.2308 46.1731C18.3487 44.8753 18.3882 43.2687 18.7337 41.8576C18.8881 41.2273 19.7703 41.0722 20.5474 41.0141C22.1631 40.8931 23.6903 41.5656 24.8857 42.4289C29.6425 45.864 26.1254 56.3723 26.0994 57.6081C26.0863 58.2289 26.5849 58.7981 27.0923 59.1914C27.5997 59.5847 28.2317 59.7751 28.884 59.3973C32.3206 57.4067 32.3611 54.0872 32.5122 52.9036C32.5875 52.3145 31.9121 51.7693 31.2824 51.4432C27.1596 49.3078 20.2216 51.1372 18.0031 52.3338C17.4787 52.6166 17.5612 53.4297 17.861 53.8478C19.4566 56.0732 24.3829 54.2805 27.9599 52.9299C30.7347 51.8823 30.0744 46.8074 30.8392 43.7108C30.9938 43.0847 31.6392 42.6893 32.3946 42.446C33.15 42.2026 34.1866 42.1971 34.8155 42.517C35.9601 43.0993 35.8343 45.2831 35.5383 47.1766C35.2377 47.9344 34.6319 48.2801 33.0014 48.8127C31.3709 49.3453 28.734 50.0542 25.101 50.8078" stroke="#EF891C" stroke-width="2" stroke-linecap="round"/>
<path d="M60.4005 33.6871C59.3417 33.6007 54.4254 32.2327 44.5296 25.6183C39.2191 22.0687 37.3578 14.5029 35.4875 6.50506C35.1429 5.03175 35.2749 4.2583 35.596 4.12767C40.641 2.07527 44.8836 14.9499 47.4986 19.2916C48.9149 21.6431 49.2905 24.0663 49.8471 25.0996C51.1392 27.4987 55.2784 18.9328 60.2758 16.9642C62.2048 16.2044 65.8465 16.8588 67.8305 17.152C69.8144 17.4452 70.1872 18.0316 70.381 18.8867C70.8171 20.8119 70.2157 22.7107 69.3997 24.0919C66.1509 29.5917 54.8116 31.7291 52.4457 32.062C51.4493 32.2021 50.8265 31.8259 50.1654 30.9489C46.2269 25.7243 44.149 20.3999 43.1645 17.7648C41.2342 12.5981 38.6825 4.54798 39.0484 1.68482C39.1723 0.715098 40.1689 0.97035 40.8679 1.27307C43.5713 2.44385 46.9099 5.15899 51.5482 12.0662C55.1668 17.4548 55.5186 22.2518 56.8961 22.9502C63.1286 26.1104 68.0852 20.731 72.447 21.0417C74.0535 21.1562 74.3139 21.9739 73.9734 22.6025C73.6328 23.2312 72.6542 23.8482 70.336 25.0785C68.0179 26.3088 64.3899 28.1336 60.6519 30.0138" stroke="#EDFB86" stroke-width="2" stroke-linecap="round"/>
</svg>
