<svg width="218" height="165" viewBox="0 0 218 165" fill="none" xmlns="http://www.w3.org/2000/svg">
<path d="M13.6953 88.8501C13.2989 87.6994 13.0329 86.5548 12.8973 85.4165C12.7526 84.2594 12.7011 83.1034 12.7427 81.9485C12.7752 80.7749 12.8731 79.5927 13.0363 78.402C13.1994 77.2112 13.3956 75.993 13.6246 74.7471C13.7726 74.05 13.9536 73.3254 14.1675 72.5732C14.3814 71.821 14.6555 71.0975 14.9898 70.4026C15.3242 69.7078 15.7369 69.0791 16.2281 68.5165C16.7289 67.9261 17.3261 67.4626 18.0196 67.1261C18.3944 66.9442 18.6986 66.8313 18.932 66.7875C19.1564 66.7249 19.3518 66.7459 19.5183 66.8503C19.6944 66.927 19.8555 67.0919 20.0016 67.3452C20.1477 67.5985 20.3114 67.9359 20.4928 68.3574C20.7202 68.8259 20.8678 69.3448 20.9356 69.914C21.0034 70.4832 20.9919 71.056 20.9013 71.6327C20.8106 72.2093 20.6409 72.7663 20.3923 73.3038C20.1346 73.8225 19.8078 74.2706 19.412 74.6479L19.221 74.2543C19.03 73.8607 18.9324 73.4449 18.9283 73.0069C18.9429 72.5599 18.9763 72.1037 19.0284 71.6384C19.0714 71.1544 19.0817 70.6747 19.0594 70.1992C19.0558 69.7147 18.9449 69.2475 18.7266 68.7977C18.5204 68.8977 18.3378 68.9748 18.1787 69.0288C18.0106 69.0641 17.8609 69.1135 17.7297 69.1772C17.6082 69.213 17.4955 69.2909 17.3915 69.4108C17.2973 69.5029 17.2022 69.6648 17.1063 69.8966C16.5517 71.092 16.0327 72.4322 15.5492 73.9173C15.0754 75.3746 14.7269 76.8753 14.5036 78.4193C14.2803 79.9634 14.2249 81.4955 14.3374 83.0156C14.4595 84.5079 14.8298 85.8913 15.4483 87.1658C15.4756 87.222 15.521 87.3157 15.5847 87.4469C15.6671 87.569 15.7402 87.6957 15.8038 87.8269C15.8862 87.949 15.9641 88.0617 16.0374 88.1651C16.1107 88.2684 16.152 88.3295 16.161 88.3482C16.4673 88.4544 16.7701 88.4579 17.0694 88.359C17.3875 88.2509 17.6215 88.1605 17.7714 88.0878C18.5774 87.6967 19.2589 87.1923 19.8159 86.5746C20.3917 85.9478 20.9397 85.3114 21.4598 84.6653C21.9708 84.0005 22.4955 83.3638 23.0338 82.7552C23.5908 82.1375 24.2536 81.6422 25.022 81.2693C25.1676 81.5691 25.1532 81.9929 24.979 82.5406C24.8145 83.0604 24.5375 83.6349 24.148 84.2638C23.7773 84.8837 23.3364 85.5261 22.8254 86.1909C22.3053 86.837 21.7809 87.4504 21.2522 88.0311C20.7423 88.6028 20.2519 89.0955 19.7812 89.5092C19.3291 89.9138 18.9625 90.1844 18.6814 90.3208C18.2691 90.5209 17.8203 90.646 17.3352 90.6962C16.841 90.7276 16.357 90.6846 15.8832 90.5672C15.4281 90.4407 15.0066 90.24 14.6185 89.9652C14.2213 89.6717 13.9136 89.3 13.6953 88.8501ZM28.0059 68.8796C28.1424 69.1607 28.2459 69.4694 28.3164 69.8057C28.4057 70.1329 28.4297 70.4686 28.3883 70.8128C28.347 71.1571 28.2267 71.4818 28.0274 71.7869C27.8281 72.092 27.5129 72.3492 27.0819 72.5584C26.9545 72.296 26.8689 72.0481 26.8251 71.8146C26.7722 71.5624 26.7332 71.315 26.7081 71.0725C26.6739 70.8112 26.6304 70.5544 26.5775 70.3022C26.5154 70.0313 26.4162 69.7552 26.2798 69.4741C26.0069 68.9118 25.6994 68.5168 25.3574 68.2892C25.0062 68.0427 24.6727 67.8804 24.3569 67.8021C24.0506 67.696 23.7765 67.6322 23.5345 67.6107C23.2925 67.5892 23.1351 67.5035 23.0624 67.3535C22.9805 67.1848 22.95 67.0028 22.971 66.8074C23.0107 66.6028 23.1617 66.4369 23.4241 66.3096C23.9302 66.064 24.4247 66.0093 24.9076 66.1454C25.4001 66.2538 25.8495 66.4641 26.2558 66.7764C26.6621 67.0887 27.0212 67.447 27.3332 67.8513C27.6362 68.2369 27.8604 68.5797 28.0059 68.8796ZM34.9393 80.59C34.2751 80.0324 33.798 79.4071 33.508 78.7142C33.2089 78.0025 33.0451 77.2831 33.0164 76.556C32.9974 75.8011 33.0852 75.0753 33.2798 74.3788C33.484 73.6545 33.7528 72.9914 34.086 72.3897C34.4102 71.7693 34.7798 71.2426 35.1949 70.8096C35.6287 70.3674 36.0516 70.0696 36.4633 69.9161C36.866 69.7438 37.2435 69.7343 37.5958 69.8876C37.948 70.0408 38.2186 70.4074 38.4074 70.9873C38.7621 71.7183 38.8371 72.4693 38.6323 73.2402C38.4462 74.0021 38.1766 74.735 37.8236 75.4389C37.4892 76.1338 37.1742 76.773 36.8784 77.3565C36.5923 77.9121 36.522 78.3399 36.6676 78.6398C36.7494 78.8085 36.9068 78.8942 37.1397 78.897C37.3914 78.8906 37.662 78.8519 37.9517 78.7808C38.2323 78.6909 38.5083 78.5917 38.7798 78.4831C39.0513 78.3745 39.2479 78.3023 39.3694 78.2665C40.9493 77.0366 42.1616 76.1705 43.0061 75.668C43.8415 75.1468 44.399 74.8878 44.6785 74.8911C44.9489 74.8757 44.9793 75.0577 44.7698 75.4373C44.57 75.789 44.2106 76.2413 43.6916 76.7942C43.1635 77.3284 42.5232 77.8938 41.7707 78.4906C41.0182 79.0873 40.2387 79.6045 39.4323 80.0422C38.6167 80.4612 37.8073 80.7498 37.0041 80.908C36.2196 81.0571 35.5314 80.9511 34.9393 80.59ZM36.7486 71.7923C36.3738 71.9742 36.0677 72.2501 35.8304 72.62C35.593 72.9899 35.4111 73.4024 35.2846 73.8575C35.1677 74.2847 35.1065 74.7312 35.101 75.197C35.0864 75.6441 35.1096 76.0497 35.1705 76.4138C35.2171 76.4144 35.2497 76.4101 35.2685 76.401L35.3528 76.3601C35.6152 76.2327 35.8605 75.9747 36.0887 75.5861C36.317 75.1975 36.5037 74.7711 36.649 74.3069C36.7851 73.824 36.8699 73.3545 36.9032 72.8983C36.9366 72.4421 36.8851 72.0735 36.7486 71.7923ZM43.6651 74.3061C43.4923 73.95 43.3891 73.618 43.3555 73.3101C43.3406 72.9931 43.5487 72.73 43.9798 72.5208C44.0173 72.5026 44.1061 72.4711 44.2464 72.4262C44.3964 72.3534 44.504 72.3127 44.5693 72.3042C44.9781 73.1942 45.4416 73.7914 45.9598 74.0957C46.4688 74.3812 47.1357 74.3239 47.9604 73.9237C48.6352 73.5962 49.2505 73.1702 49.8064 72.6457C50.3624 72.1212 50.8073 71.5348 51.1411 70.8865C51.4845 70.2104 51.6745 69.5045 51.7112 68.7689C51.7666 68.0241 51.6169 67.2862 51.2622 66.5553C51.0439 66.1054 50.73 65.8641 50.3204 65.8313C49.9295 65.7894 49.5194 65.8032 49.09 65.8727C48.6605 65.9421 48.2547 65.9886 47.8724 66.012C47.4997 66.0076 47.227 65.8273 47.0542 65.4712C46.845 65.0401 46.9073 64.5004 47.2411 63.8522C47.5749 63.2039 48.0251 62.557 48.5918 61.9114C49.1494 61.2472 49.734 60.6624 50.3456 60.1572C50.9669 59.6241 51.465 59.2666 51.8398 59.0847C52.1036 59.6283 52.1682 60.0716 52.0337 60.4148C51.918 60.7489 51.7232 61.0633 51.4495 61.3583C51.1758 61.6532 50.8928 61.9527 50.6003 62.2567C50.3175 62.5329 50.1455 62.8942 50.0843 63.3407C50.5025 63.4389 50.8553 63.5455 51.1427 63.6607C51.4399 63.7481 51.6992 63.877 51.9208 64.0473C52.1424 64.2177 52.3402 64.4343 52.5141 64.6973C52.679 64.9415 52.8523 65.251 53.0342 65.6259C53.5072 66.6005 53.7237 67.5954 53.6838 68.6105C53.6534 69.5978 53.4419 70.5457 53.0491 71.4542C52.6472 72.3439 52.0925 73.1573 51.385 73.8943C50.6683 74.6126 49.8602 75.1901 48.9605 75.6267C48.4732 75.8632 47.968 76.0389 47.4448 76.1538C46.9313 76.2409 46.4329 76.2397 45.9494 76.1501C45.4847 76.0514 45.0537 75.8553 44.6566 75.5617C44.2594 75.2682 43.9289 74.8496 43.6651 74.3061ZM57.1542 68.2463C56.8904 67.7027 56.7297 67.1092 56.6721 66.4656C56.6145 65.822 56.599 65.1696 56.6254 64.5083C56.6428 63.8283 56.6647 63.1577 56.6912 62.4965C56.7364 61.8262 56.7112 61.2016 56.6155 60.6228C56.3595 61.0018 56.1093 61.2737 55.8651 61.4385C55.6306 61.5755 55.3352 61.7304 54.9791 61.9032C54.9416 61.9214 54.8198 61.9805 54.6136 62.0806C54.4171 62.1528 54.2907 62.2025 54.2345 62.2298C54.1468 61.7629 54.1756 61.2974 54.3209 60.8332C54.4571 60.3503 54.658 59.9054 54.9237 59.4986C55.1991 59.0639 55.5065 58.6716 55.8461 58.3215C56.1953 57.9436 56.5159 57.626 56.8078 57.3685C56.9426 56.2148 56.9743 55.111 56.9029 54.0573C56.8224 52.9848 56.7556 51.9404 56.7024 50.9242C56.6588 49.8801 56.6943 48.8556 56.8087 47.8506C56.9327 46.8178 57.2573 45.7688 57.7823 44.7035L58.4414 45.7036L58.9246 55.6466C59.1035 55.4903 59.3293 55.3113 59.6019 55.1095C59.8745 54.9077 60.1471 54.706 60.4197 54.5042C60.711 54.2934 60.9882 54.101 61.2511 53.927C61.5237 53.7253 61.7494 53.5463 61.9283 53.39C61.9471 53.3809 62.0033 53.3536 62.097 53.3081C62.1816 53.2439 62.2521 53.1981 62.3083 53.1709C62.5707 53.0435 62.809 52.9858 63.0231 52.9976C63.2373 53.0095 63.4779 53.1474 63.745 53.4115C62.6524 54.4049 61.6907 55.3578 60.86 56.2704C60.0292 57.1831 59.3933 58.1632 58.9523 59.2109C58.521 60.2307 58.3118 61.3743 58.3247 62.6416C58.3473 63.8811 58.6515 65.3429 59.2372 67.027C59.4009 67.3644 59.5697 67.6646 59.7436 67.9275C59.9175 68.1905 60.2337 68.2455 60.6921 68.0925C61.1232 67.8833 61.4852 67.6034 61.7782 67.2528C62.0712 66.9022 62.3503 66.5468 62.6154 66.1865C62.8715 65.8075 63.1366 65.4473 63.4109 65.1058C63.7039 64.7552 64.0659 64.4753 64.497 64.2661C64.7153 64.7159 64.7186 65.2238 64.5069 65.7896C64.2952 66.3555 63.9765 66.9154 63.5506 67.4694C63.1435 68.0144 62.6858 68.5028 62.1776 68.9347C61.6693 69.3666 61.2277 69.6735 60.8529 69.8554C60.478 70.0373 60.1043 70.1261 59.7316 70.1217C59.359 70.1173 59.0104 70.0433 58.686 69.8997C58.3713 69.7282 58.0758 69.5011 57.7996 69.2183C57.5422 68.9264 57.327 68.6024 57.1542 68.2463ZM93.9997 53.7697C93.6436 53.9425 93.2837 54.0361 92.9202 54.0504C92.5754 54.0556 92.2501 53.9819 91.9444 53.8292C91.6388 53.6765 91.3757 53.4684 91.1552 53.2049C90.9256 52.9226 90.7712 52.5807 90.6921 52.1791C90.4011 51.5793 90.2358 50.9764 90.1964 50.3703C90.1666 49.7363 90.1693 49.1214 90.2043 48.5255C90.2489 47.9018 90.2606 47.3056 90.2394 46.7369C90.2279 46.1405 90.0902 45.5705 89.8264 45.0269C89.4141 45.227 89.0373 45.572 88.696 46.0618C88.3548 46.5516 88.0451 47.1303 87.767 47.7978C87.5076 48.4563 87.2756 49.171 87.0708 49.942C86.8756 50.6851 86.7038 51.4284 86.5552 52.1721C86.4163 52.8879 86.3151 53.5622 86.2517 54.1951C86.2071 54.8188 86.1871 55.3264 86.1918 55.7178C86.1634 55.7547 86.0788 55.8189 85.9379 55.9104C85.788 55.9832 85.6942 56.0287 85.6568 56.0469C85.4296 56.3424 85.2422 56.4333 85.0945 56.3198C84.9564 56.1784 84.8336 55.9253 84.7261 55.5607C84.6373 55.1869 84.5679 54.7575 84.5177 54.2724C84.4585 53.7685 84.4035 53.2973 84.3528 52.8588C84.3117 52.3924 84.2695 52.0192 84.2263 51.7392C84.1739 51.4404 84.1196 51.3047 84.0634 51.3319C84.0832 51.2297 84.0897 51.076 84.0828 50.871C84.0759 50.6659 84.0645 50.4514 84.0485 50.2276C84.0325 50.0038 84.0162 49.8033 83.9997 49.6261C83.9741 49.4301 83.9385 49.2853 83.893 49.1915C83.8112 49.0229 83.6955 48.9516 83.5462 48.9778C83.4064 48.9761 83.2803 49.0026 83.1678 49.0572C82.7395 49.0335 82.4286 49.3233 82.2351 49.9266C82.0513 50.5022 81.9163 51.2739 81.8303 52.2419C81.754 53.1821 81.6854 54.2575 81.6244 55.468C81.5732 56.6508 81.452 57.8327 81.261 59.0137C80.8299 59.2229 80.4746 59.3259 80.1951 59.3226C79.9156 59.3193 79.6668 59.0927 79.4485 58.6429C79.4983 58.3639 79.5368 57.8706 79.5638 57.1627C79.5817 56.4362 79.6099 55.6352 79.6482 54.7598C79.6865 53.8844 79.739 52.9905 79.8057 52.0782C79.8912 51.1568 80.0031 50.3614 80.1414 49.6922C80.2894 48.9951 80.4725 48.4895 80.6905 48.1753C80.9182 47.8332 81.2121 47.7948 81.5724 48.0599C81.7909 47.6991 82.0513 47.3528 82.3534 47.0209C82.6742 46.68 83.0314 46.414 83.425 46.223C83.6874 46.0957 83.9439 46.0754 84.1944 46.1622C84.4546 46.2212 84.6907 46.3498 84.9027 46.548C85.1243 46.7183 85.3269 46.921 85.5104 47.1562C85.6849 47.3725 85.8176 47.5744 85.9086 47.7619C86.0511 47.5306 86.2793 47.142 86.5933 46.5959C86.9168 46.0221 87.2686 45.4346 87.6484 44.8334C88.0469 44.2232 88.4495 43.6689 88.8561 43.1706C89.2723 42.6444 89.649 42.2994 89.9864 42.1357C90.2863 41.9902 90.5939 41.9798 90.9092 42.1047C91.2342 42.2017 91.474 42.4096 91.6286 42.7282C91.7543 44.705 91.8614 46.2856 91.9498 47.47C92.0571 48.6453 92.1815 49.5459 92.3232 50.1719C92.4745 50.77 92.6655 51.1636 92.8962 51.3527C93.1366 51.5139 93.4479 51.5828 93.8302 51.5594C94.3362 51.3138 94.7826 50.993 95.1693 50.5969C95.556 50.2008 95.9243 49.7905 96.2741 49.3661C96.6426 48.9325 97.0202 48.5177 97.4069 48.1216C97.7936 47.7255 98.2494 47.4001 98.7742 47.1455C98.8742 47.3516 98.9135 47.5757 98.892 47.8177C98.8801 48.0319 98.7939 48.2359 98.6332 48.4296C98.5287 48.5961 98.3297 48.8779 98.0362 49.2751C97.7523 49.6445 97.44 50.0507 97.0993 50.4939C96.7495 50.9184 96.4185 51.3338 96.1062 51.7401C95.8126 52.1372 95.5997 52.4143 95.4674 52.5711C95.1744 52.9217 94.9385 53.1751 94.7596 53.3314C94.5904 53.4599 94.3371 53.6059 93.9997 53.7697ZM98.6878 48.5421C98.6514 48.4671 98.5786 48.3172 98.4695 48.0922C98.37 47.8395 98.302 47.6756 98.2656 47.6007C98.2014 45.9414 98.3559 44.3033 98.7291 42.6865C99.1023 41.0696 99.661 39.5248 100.405 38.0522C100.443 38.034 100.494 37.9973 100.56 37.9422C100.636 37.8592 100.692 37.8086 100.73 37.7904C101.236 37.5449 101.703 37.4572 102.131 37.5275C102.568 37.5699 102.967 37.7238 103.327 37.9889C103.697 38.2262 104.024 38.5422 104.308 38.9369C104.583 39.3129 104.816 39.6977 105.007 40.0913C105.362 40.8223 105.566 41.6726 105.62 42.6422C105.665 43.5932 105.56 44.547 105.307 45.5037C105.063 46.4326 104.68 47.2899 104.158 48.0757C103.627 48.8428 102.968 49.4174 102.181 49.7994C101.394 50.1814 100.703 50.2617 100.11 50.0404C99.5255 49.7912 99.0516 49.2918 98.6878 48.5421ZM100.717 47.1405C100.817 47.3467 100.97 47.4463 101.175 47.4394C101.38 47.4325 101.567 47.3882 101.735 47.3063C102.204 47.0789 102.595 46.7388 102.907 46.2859C103.23 45.8052 103.469 45.2956 103.624 44.757C103.789 44.1906 103.861 43.6231 103.84 43.0544C103.819 42.4858 103.704 41.986 103.494 41.5549C103.394 41.3487 103.267 41.1329 103.111 40.9074C102.965 40.6541 102.799 40.4565 102.615 40.3145C102.421 40.1538 102.194 40.0673 101.933 40.0549C101.691 40.0334 101.41 40.1465 101.09 40.3943C100.855 40.5779 100.674 40.9671 100.545 41.5619C100.417 42.1567 100.335 42.8219 100.298 43.5576C100.271 44.2654 100.296 44.9599 100.371 45.6409C100.438 46.3033 100.553 46.8031 100.717 47.1405ZM108.225 44.5739C108.097 44.3115 108.016 44.0729 107.982 43.8582C107.938 43.6247 107.914 43.3123 107.909 42.9209C107.949 42.6698 108.011 42.2 108.093 41.5115C108.195 40.8139 108.292 40.0836 108.385 39.3206C108.496 38.5486 108.598 37.8277 108.69 37.1579C108.791 36.4603 108.858 35.9766 108.889 35.7067C108.939 35.3812 109.007 35.1863 109.091 35.1221C109.176 35.0579 109.349 34.9621 109.612 34.8348C109.781 34.7529 109.963 34.6759 110.16 34.6036C110.375 34.5223 110.57 34.5899 110.744 34.8062C110.791 35.5708 110.731 36.3528 110.563 37.1521C110.405 37.9236 110.246 38.6951 110.088 39.4666C109.949 40.229 109.865 40.9874 109.838 41.7418C109.801 42.4774 109.946 43.1826 110.274 43.8574C110.349 43.821 110.466 43.7758 110.625 43.7218C110.803 43.6587 110.99 43.591 111.186 43.5188C111.383 43.4466 111.561 43.3834 111.72 43.3294C111.897 43.2663 112.019 43.2072 112.085 43.152C112.188 43.0787 112.358 42.9503 112.593 42.7667C112.838 42.5553 113.092 42.3394 113.355 42.1189C113.637 41.8893 113.901 41.6688 114.146 41.4573C114.39 41.2459 114.56 41.0942 114.654 41.0021C114.672 41.0396 114.704 41.1052 114.75 41.1989C114.805 41.2648 114.842 41.3165 114.86 41.354C115.042 41.7288 115.014 42.1245 114.776 42.541C114.557 42.9484 114.249 43.3407 113.853 43.7181C113.467 44.0676 113.044 44.3887 112.584 44.6814C112.134 44.9463 111.777 45.1424 111.515 45.2697C111.234 45.4061 110.93 45.519 110.602 45.6083C110.285 45.6698 109.977 45.6801 109.68 45.6393C109.382 45.5985 109.104 45.5021 108.844 45.3499C108.595 45.1699 108.388 44.9112 108.225 44.5739ZM108.411 24.1286C108.655 24.0104 108.884 23.9106 109.099 23.8293C109.315 23.748 109.515 23.7084 109.702 23.7106C109.888 23.7128 110.064 23.7661 110.231 23.8706C110.397 23.9751 110.544 24.1585 110.672 24.4209C110.726 24.5334 110.785 24.6552 110.849 24.7864C110.913 24.9176 110.958 25.0579 110.984 25.2073C111.02 25.3288 111.023 25.4547 110.993 25.5848C110.955 25.6961 110.851 25.7927 110.682 25.8746C110.42 26.0019 110.159 26.0128 109.899 25.9072C109.658 25.7926 109.441 25.6316 109.248 25.4243C109.046 25.1983 108.872 24.9587 108.725 24.7054C108.579 24.452 108.475 24.2598 108.411 24.1286ZM132.937 32.5812C132.919 32.5437 132.934 32.4553 132.982 32.3162C133.031 32.177 133.078 32.0843 133.125 32.0383C133.191 31.9832 133.327 31.9056 133.533 31.8055C133.73 31.6868 133.937 31.5634 134.153 31.4355C134.387 31.2985 134.608 31.18 134.814 31.08C135.011 30.9612 135.147 30.8836 135.222 30.8472C135.477 31.372 135.624 31.9142 135.664 32.4737C135.713 33.0054 135.466 33.473 134.92 33.8765C134.695 34.0322 134.471 34.0715 134.248 33.9943C134.044 33.9081 133.85 33.7707 133.666 33.5821C133.482 33.3936 133.321 33.2053 133.184 33.0174C133.056 32.8015 132.974 32.6561 132.937 32.5812ZM128.998 21.7448C128.725 21.1825 128.532 20.6165 128.417 20.0467C128.294 19.4583 128.208 18.8749 128.159 18.2966C128.11 17.7183 128.07 17.1355 128.04 16.5482C128.028 15.9517 127.984 15.3595 127.907 14.7716C127.873 14.5103 127.799 14.0482 127.686 13.3853C127.582 12.6946 127.465 11.9757 127.334 11.2288C127.222 10.4727 127.109 9.76325 126.996 9.10035C126.873 8.41872 126.786 7.9518 126.733 7.6996C126.553 7.13842 126.61 6.65923 126.903 6.26205C127.207 5.83703 127.583 5.51537 128.033 5.29708C128.688 6.64656 129.105 8.03051 129.284 9.4489C129.472 10.8395 129.586 12.2431 129.625 13.6598C129.664 15.0766 129.717 16.4981 129.784 17.9245C129.861 19.3231 130.115 20.7051 130.546 22.0706L130.377 22.1524C129.74 22.4617 129.28 22.3258 128.998 21.7448Z" fill="#181176"/>
<path d="M13.6953 88.8501C13.2989 87.6994 13.0329 86.5548 12.8973 85.4165C12.7526 84.2594 12.7011 83.1034 12.7427 81.9485C12.7752 80.7749 12.8731 79.5927 13.0363 78.402C13.1994 77.2112 13.3956 75.993 13.6246 74.7471C13.7726 74.05 13.9536 73.3254 14.1675 72.5732C14.3814 71.821 14.6555 71.0975 14.9898 70.4026C15.3242 69.7078 15.7369 69.0791 16.2281 68.5165C16.7289 67.9261 17.3261 67.4626 18.0196 67.1261C18.3944 66.9442 18.6986 66.8313 18.932 66.7875C19.1564 66.7249 19.3518 66.7459 19.5183 66.8503C19.6944 66.927 19.8555 67.0919 20.0016 67.3452C20.1477 67.5985 20.3114 67.9359 20.4928 68.3574C20.7202 68.8259 20.8678 69.3448 20.9356 69.914C21.0034 70.4832 20.9919 71.056 20.9013 71.6327C20.8106 72.2093 20.6409 72.7663 20.3923 73.3038C20.1346 73.8225 19.8078 74.2706 19.412 74.6479L19.221 74.2543C19.03 73.8607 18.9324 73.4449 18.9283 73.0069C18.9429 72.5599 18.9763 72.1037 19.0284 71.6384C19.0714 71.1544 19.0817 70.6747 19.0594 70.1992C19.0558 69.7147 18.9449 69.2475 18.7266 68.7977C18.5204 68.8977 18.3378 68.9748 18.1787 69.0288C18.0106 69.0641 17.8609 69.1135 17.7297 69.1772C17.6082 69.213 17.4955 69.2909 17.3915 69.4108C17.2973 69.5029 17.2022 69.6648 17.1063 69.8966C16.5517 71.092 16.0327 72.4322 15.5492 73.9173C15.0754 75.3746 14.7269 76.8753 14.5036 78.4193C14.2803 79.9634 14.2249 81.4955 14.3374 83.0156C14.4595 84.5079 14.8298 85.8913 15.4483 87.1658C15.4756 87.222 15.521 87.3157 15.5847 87.4469C15.6671 87.569 15.7402 87.6957 15.8038 87.8269C15.8862 87.949 15.9641 88.0617 16.0374 88.1651C16.1107 88.2684 16.152 88.3295 16.161 88.3482C16.4673 88.4544 16.7701 88.4579 17.0694 88.359C17.3875 88.2509 17.6215 88.1605 17.7714 88.0878C18.5774 87.6967 19.2589 87.1923 19.8159 86.5746C20.3917 85.9478 20.9397 85.3114 21.4598 84.6653C21.9708 84.0005 22.4955 83.3638 23.0338 82.7552C23.5908 82.1375 24.2536 81.6422 25.022 81.2693C25.1676 81.5691 25.1532 81.9929 24.979 82.5406C24.8145 83.0604 24.5375 83.6349 24.148 84.2638C23.7773 84.8837 23.3364 85.5261 22.8254 86.1909C22.3053 86.837 21.7809 87.4504 21.2522 88.0311C20.7423 88.6028 20.2519 89.0955 19.7812 89.5092C19.3291 89.9138 18.9625 90.1844 18.6814 90.3208C18.2691 90.5209 17.8203 90.646 17.3352 90.6962C16.841 90.7276 16.357 90.6846 15.8832 90.5672C15.4281 90.4407 15.0066 90.24 14.6185 89.9652C14.2213 89.6717 13.9136 89.3 13.6953 88.8501ZM28.0059 68.8796C28.1424 69.1607 28.2459 69.4694 28.3164 69.8057C28.4057 70.1329 28.4297 70.4686 28.3883 70.8128C28.347 71.1571 28.2267 71.4818 28.0274 71.7869C27.8281 72.092 27.5129 72.3492 27.0819 72.5584C26.9545 72.296 26.8689 72.0481 26.8251 71.8146C26.7722 71.5624 26.7332 71.315 26.7081 71.0725C26.6739 70.8112 26.6304 70.5544 26.5775 70.3022C26.5154 70.0313 26.4162 69.7552 26.2798 69.4741C26.0069 68.9118 25.6994 68.5168 25.3574 68.2892C25.0062 68.0427 24.6727 67.8804 24.3569 67.8021C24.0506 67.696 23.7765 67.6322 23.5345 67.6107C23.2925 67.5892 23.1351 67.5035 23.0624 67.3535C22.9805 67.1848 22.95 67.0028 22.971 66.8074C23.0107 66.6028 23.1617 66.4369 23.4241 66.3096C23.9302 66.064 24.4247 66.0093 24.9076 66.1454C25.4001 66.2538 25.8495 66.4641 26.2558 66.7764C26.6621 67.0887 27.0212 67.447 27.3332 67.8513C27.6362 68.2369 27.8604 68.5797 28.0059 68.8796ZM34.9393 80.59C34.2751 80.0324 33.798 79.4071 33.508 78.7142C33.2089 78.0025 33.0451 77.2831 33.0164 76.556C32.9974 75.8011 33.0852 75.0753 33.2798 74.3788C33.484 73.6545 33.7528 72.9914 34.086 72.3897C34.4102 71.7693 34.7798 71.2426 35.1949 70.8096C35.6287 70.3674 36.0516 70.0696 36.4633 69.9161C36.866 69.7438 37.2435 69.7343 37.5958 69.8876C37.948 70.0408 38.2186 70.4074 38.4074 70.9873C38.7621 71.7183 38.8371 72.4693 38.6323 73.2402C38.4462 74.0021 38.1766 74.735 37.8236 75.4389C37.4892 76.1338 37.1742 76.773 36.8784 77.3565C36.5923 77.9121 36.522 78.3399 36.6676 78.6398C36.7494 78.8085 36.9068 78.8942 37.1397 78.897C37.3914 78.8906 37.662 78.8519 37.9517 78.7808C38.2323 78.6909 38.5083 78.5917 38.7798 78.4831C39.0513 78.3745 39.2479 78.3023 39.3694 78.2665C40.9493 77.0366 42.1616 76.1705 43.0061 75.668C43.8415 75.1468 44.399 74.8878 44.6785 74.8911C44.9489 74.8757 44.9793 75.0577 44.7698 75.4373C44.57 75.789 44.2106 76.2413 43.6916 76.7942C43.1635 77.3284 42.5232 77.8938 41.7707 78.4906C41.0182 79.0873 40.2387 79.6045 39.4323 80.0422C38.6167 80.4612 37.8073 80.7498 37.0041 80.908C36.2196 81.0571 35.5314 80.9511 34.9393 80.59ZM36.7486 71.7923C36.3738 71.9742 36.0677 72.2501 35.8304 72.62C35.593 72.9899 35.4111 73.4024 35.2846 73.8575C35.1677 74.2847 35.1065 74.7312 35.101 75.197C35.0864 75.6441 35.1096 76.0497 35.1705 76.4138C35.2171 76.4144 35.2497 76.4101 35.2685 76.401L35.3528 76.3601C35.6152 76.2327 35.8605 75.9747 36.0887 75.5861C36.317 75.1975 36.5037 74.7711 36.649 74.3069C36.7851 73.824 36.8699 73.3545 36.9032 72.8983C36.9366 72.4421 36.8851 72.0735 36.7486 71.7923ZM43.6651 74.3061C43.4923 73.95 43.3891 73.618 43.3555 73.3101C43.3406 72.9931 43.5487 72.73 43.9798 72.5208C44.0173 72.5026 44.1061 72.4711 44.2464 72.4262C44.3964 72.3534 44.504 72.3127 44.5693 72.3042C44.9781 73.1942 45.4416 73.7914 45.9598 74.0957C46.4688 74.3812 47.1357 74.3239 47.9604 73.9237C48.6352 73.5962 49.2505 73.1702 49.8064 72.6457C50.3624 72.1212 50.8073 71.5348 51.1411 70.8865C51.4845 70.2104 51.6745 69.5045 51.7112 68.7689C51.7666 68.0241 51.6169 67.2862 51.2622 66.5553C51.0439 66.1054 50.73 65.8641 50.3204 65.8313C49.9295 65.7894 49.5194 65.8032 49.09 65.8727C48.6605 65.9421 48.2547 65.9886 47.8724 66.012C47.4997 66.0076 47.227 65.8273 47.0542 65.4712C46.845 65.0401 46.9073 64.5004 47.2411 63.8522C47.5749 63.2039 48.0251 62.557 48.5918 61.9114C49.1494 61.2472 49.734 60.6624 50.3456 60.1572C50.9669 59.6241 51.465 59.2666 51.8398 59.0847C52.1036 59.6283 52.1682 60.0716 52.0337 60.4148C51.918 60.7489 51.7232 61.0633 51.4495 61.3583C51.1758 61.6532 50.8928 61.9527 50.6003 62.2567C50.3175 62.5329 50.1455 62.8942 50.0843 63.3407C50.5025 63.4389 50.8553 63.5455 51.1427 63.6607C51.4399 63.7481 51.6992 63.877 51.9208 64.0473C52.1424 64.2177 52.3402 64.4343 52.5141 64.6973C52.679 64.9415 52.8523 65.251 53.0342 65.6259C53.5072 66.6005 53.7237 67.5954 53.6838 68.6105C53.6534 69.5978 53.4419 70.5457 53.0491 71.4542C52.6472 72.3439 52.0925 73.1573 51.385 73.8943C50.6683 74.6126 49.8602 75.1901 48.9605 75.6267C48.4732 75.8632 47.968 76.0389 47.4448 76.1538C46.9313 76.2409 46.4329 76.2397 45.9494 76.1501C45.4847 76.0514 45.0537 75.8553 44.6566 75.5617C44.2594 75.2682 43.9289 74.8496 43.6651 74.3061ZM57.1542 68.2463C56.8904 67.7027 56.7297 67.1092 56.6721 66.4656C56.6145 65.822 56.599 65.1696 56.6254 64.5083C56.6428 63.8283 56.6647 63.1577 56.6912 62.4965C56.7364 61.8262 56.7112 61.2016 56.6155 60.6228C56.3595 61.0018 56.1093 61.2737 55.8651 61.4385C55.6306 61.5755 55.3352 61.7304 54.9791 61.9032C54.9416 61.9214 54.8198 61.9805 54.6136 62.0806C54.4171 62.1528 54.2907 62.2025 54.2345 62.2298C54.1468 61.7629 54.1756 61.2974 54.3209 60.8332C54.4571 60.3503 54.658 59.9054 54.9237 59.4986C55.1991 59.0639 55.5065 58.6716 55.8461 58.3215C56.1953 57.9436 56.5159 57.626 56.8078 57.3685C56.9426 56.2148 56.9743 55.111 56.9029 54.0573C56.8224 52.9848 56.7556 51.9404 56.7024 50.9242C56.6588 49.8801 56.6943 48.8556 56.8087 47.8506C56.9327 46.8178 57.2573 45.7688 57.7823 44.7035L58.4414 45.7036L58.9246 55.6466C59.1035 55.4903 59.3293 55.3113 59.6019 55.1095C59.8745 54.9077 60.1471 54.706 60.4197 54.5042C60.711 54.2934 60.9882 54.101 61.2511 53.927C61.5237 53.7253 61.7494 53.5463 61.9283 53.39C61.9471 53.3809 62.0033 53.3536 62.097 53.3081C62.1816 53.2439 62.2521 53.1981 62.3083 53.1709C62.5707 53.0435 62.809 52.9858 63.0231 52.9976C63.2373 53.0095 63.4779 53.1474 63.745 53.4115C62.6524 54.4049 61.6907 55.3578 60.86 56.2704C60.0292 57.1831 59.3933 58.1632 58.9523 59.2109C58.521 60.2307 58.3118 61.3743 58.3247 62.6416C58.3473 63.8811 58.6515 65.3429 59.2372 67.027C59.4009 67.3644 59.5697 67.6646 59.7436 67.9275C59.9175 68.1905 60.2337 68.2455 60.6921 68.0925C61.1232 67.8833 61.4852 67.6034 61.7782 67.2528C62.0712 66.9022 62.3503 66.5468 62.6154 66.1865C62.8715 65.8075 63.1366 65.4473 63.4109 65.1058C63.7039 64.7552 64.0659 64.4753 64.497 64.2661C64.7153 64.7159 64.7186 65.2238 64.5069 65.7896C64.2952 66.3555 63.9765 66.9154 63.5506 67.4694C63.1435 68.0144 62.6858 68.5028 62.1776 68.9347C61.6693 69.3666 61.2277 69.6735 60.8529 69.8554C60.478 70.0373 60.1043 70.1261 59.7316 70.1217C59.359 70.1173 59.0104 70.0433 58.686 69.8997C58.3713 69.7282 58.0758 69.5011 57.7996 69.2183C57.5422 68.9264 57.327 68.6024 57.1542 68.2463ZM93.9997 53.7697C93.6436 53.9425 93.2837 54.0361 92.9202 54.0504C92.5754 54.0556 92.2501 53.9819 91.9444 53.8292C91.6388 53.6765 91.3757 53.4684 91.1552 53.2049C90.9256 52.9226 90.7712 52.5807 90.6921 52.1791C90.4011 51.5793 90.2358 50.9764 90.1964 50.3703C90.1666 49.7363 90.1693 49.1214 90.2043 48.5255C90.2489 47.9018 90.2606 47.3056 90.2394 46.7369C90.2279 46.1405 90.0902 45.5705 89.8264 45.0269C89.4141 45.227 89.0373 45.572 88.696 46.0618C88.3548 46.5516 88.0451 47.1303 87.767 47.7978C87.5076 48.4563 87.2756 49.171 87.0708 49.942C86.8756 50.6851 86.7038 51.4284 86.5552 52.1721C86.4163 52.8879 86.3151 53.5622 86.2517 54.1951C86.2071 54.8188 86.1871 55.3264 86.1918 55.7178C86.1634 55.7547 86.0788 55.8189 85.9379 55.9104C85.788 55.9832 85.6942 56.0287 85.6568 56.0469C85.4296 56.3424 85.2422 56.4333 85.0945 56.3198C84.9564 56.1784 84.8336 55.9253 84.7261 55.5607C84.6373 55.1869 84.5679 54.7575 84.5177 54.2724C84.4585 53.7685 84.4035 53.2973 84.3528 52.8588C84.3117 52.3924 84.2695 52.0192 84.2263 51.7392C84.1739 51.4404 84.1196 51.3047 84.0634 51.3319C84.0832 51.2297 84.0897 51.076 84.0828 50.871C84.0759 50.6659 84.0645 50.4514 84.0485 50.2276C84.0325 50.0038 84.0162 49.8033 83.9997 49.6261C83.9741 49.4301 83.9385 49.2853 83.893 49.1915C83.8112 49.0229 83.6955 48.9516 83.5462 48.9778C83.4064 48.9761 83.2803 49.0026 83.1678 49.0572C82.7395 49.0335 82.4286 49.3233 82.2351 49.9266C82.0513 50.5022 81.9163 51.2739 81.8303 52.2419C81.754 53.1821 81.6854 54.2575 81.6244 55.468C81.5732 56.6508 81.452 57.8327 81.261 59.0137C80.8299 59.2229 80.4746 59.3259 80.1951 59.3226C79.9156 59.3193 79.6668 59.0927 79.4485 58.6429C79.4983 58.3639 79.5368 57.8706 79.5638 57.1627C79.5817 56.4362 79.6099 55.6352 79.6482 54.7598C79.6865 53.8844 79.739 52.9905 79.8057 52.0782C79.8912 51.1568 80.0031 50.3614 80.1414 49.6922C80.2894 48.9951 80.4725 48.4895 80.6905 48.1753C80.9182 47.8332 81.2121 47.7948 81.5724 48.0599C81.7909 47.6991 82.0513 47.3528 82.3534 47.0209C82.6742 46.68 83.0314 46.414 83.425 46.223C83.6874 46.0957 83.9439 46.0754 84.1944 46.1622C84.4546 46.2212 84.6907 46.3498 84.9027 46.548C85.1243 46.7183 85.3269 46.921 85.5104 47.1562C85.6849 47.3725 85.8176 47.5744 85.9086 47.7619C86.0511 47.5306 86.2793 47.142 86.5933 46.5959C86.9168 46.0221 87.2686 45.4346 87.6484 44.8334C88.0469 44.2232 88.4495 43.6689 88.8561 43.1706C89.2723 42.6444 89.649 42.2994 89.9864 42.1357C90.2863 41.9902 90.5939 41.9798 90.9092 42.1047C91.2342 42.2017 91.474 42.4096 91.6286 42.7282C91.7543 44.705 91.8614 46.2856 91.9498 47.47C92.0571 48.6453 92.1815 49.5459 92.3232 50.1719C92.4745 50.77 92.6655 51.1636 92.8962 51.3527C93.1366 51.5139 93.4479 51.5828 93.8302 51.5594C94.3362 51.3138 94.7826 50.993 95.1693 50.5969C95.556 50.2008 95.9243 49.7905 96.2741 49.3661C96.6426 48.9325 97.0202 48.5177 97.4069 48.1216C97.7936 47.7255 98.2494 47.4001 98.7742 47.1455C98.8742 47.3516 98.9135 47.5757 98.892 47.8177C98.8801 48.0319 98.7939 48.2359 98.6332 48.4296C98.5287 48.5961 98.3297 48.8779 98.0362 49.2751C97.7523 49.6445 97.44 50.0507 97.0993 50.4939C96.7495 50.9184 96.4185 51.3338 96.1062 51.7401C95.8126 52.1372 95.5997 52.4143 95.4674 52.5711C95.1744 52.9217 94.9385 53.1751 94.7596 53.3314C94.5904 53.4599 94.3371 53.6059 93.9997 53.7697ZM98.6878 48.5421C98.6514 48.4671 98.5786 48.3172 98.4695 48.0922C98.37 47.8395 98.302 47.6756 98.2656 47.6007C98.2014 45.9414 98.3559 44.3033 98.7291 42.6865C99.1023 41.0696 99.661 39.5248 100.405 38.0522C100.443 38.034 100.494 37.9973 100.56 37.9422C100.636 37.8592 100.692 37.8086 100.73 37.7904C101.236 37.5449 101.703 37.4572 102.131 37.5275C102.568 37.5699 102.967 37.7238 103.327 37.9889C103.697 38.2262 104.024 38.5422 104.308 38.9369C104.583 39.3129 104.816 39.6977 105.007 40.0913C105.362 40.8223 105.566 41.6726 105.62 42.6422C105.665 43.5932 105.56 44.547 105.307 45.5037C105.063 46.4326 104.68 47.2899 104.158 48.0757C103.627 48.8428 102.968 49.4174 102.181 49.7994C101.394 50.1814 100.703 50.2617 100.11 50.0404C99.5255 49.7912 99.0516 49.2918 98.6878 48.5421ZM100.717 47.1405C100.817 47.3467 100.97 47.4463 101.175 47.4394C101.38 47.4325 101.567 47.3882 101.735 47.3063C102.204 47.0789 102.595 46.7388 102.907 46.2859C103.23 45.8052 103.469 45.2956 103.624 44.757C103.789 44.1906 103.861 43.6231 103.84 43.0544C103.819 42.4858 103.704 41.986 103.494 41.5549C103.394 41.3487 103.267 41.1329 103.111 40.9074C102.965 40.6541 102.799 40.4565 102.615 40.3145C102.421 40.1538 102.194 40.0673 101.933 40.0549C101.691 40.0334 101.41 40.1465 101.09 40.3943C100.855 40.5779 100.674 40.9671 100.545 41.5619C100.417 42.1567 100.335 42.8219 100.298 43.5576C100.271 44.2654 100.296 44.9599 100.371 45.6409C100.438 46.3033 100.553 46.8031 100.717 47.1405ZM108.225 44.5739C108.097 44.3115 108.016 44.0729 107.982 43.8582C107.938 43.6247 107.914 43.3123 107.909 42.9209C107.949 42.6698 108.011 42.2 108.093 41.5115C108.195 40.8139 108.292 40.0836 108.385 39.3206C108.496 38.5486 108.598 37.8277 108.69 37.1579C108.791 36.4603 108.858 35.9766 108.889 35.7067C108.939 35.3812 109.007 35.1863 109.091 35.1221C109.176 35.0579 109.349 34.9621 109.612 34.8348C109.781 34.7529 109.963 34.6759 110.16 34.6036C110.375 34.5223 110.57 34.5899 110.744 34.8062C110.791 35.5708 110.731 36.3528 110.563 37.1521C110.405 37.9236 110.246 38.6951 110.088 39.4666C109.949 40.229 109.865 40.9874 109.838 41.7418C109.801 42.4774 109.946 43.1826 110.274 43.8574C110.349 43.821 110.466 43.7758 110.625 43.7218C110.803 43.6587 110.99 43.591 111.186 43.5188C111.383 43.4466 111.561 43.3834 111.72 43.3294C111.897 43.2663 112.019 43.2072 112.085 43.152C112.188 43.0787 112.358 42.9503 112.593 42.7667C112.838 42.5553 113.092 42.3394 113.355 42.1189C113.637 41.8893 113.901 41.6688 114.146 41.4573C114.39 41.2459 114.56 41.0942 114.654 41.0021C114.672 41.0396 114.704 41.1052 114.75 41.1989C114.805 41.2648 114.842 41.3165 114.86 41.354C115.042 41.7288 115.014 42.1245 114.776 42.541C114.557 42.9484 114.249 43.3407 113.853 43.7181C113.467 44.0676 113.044 44.3887 112.584 44.6814C112.134 44.9463 111.777 45.1424 111.515 45.2697C111.234 45.4061 110.93 45.519 110.602 45.6083C110.285 45.6698 109.977 45.6801 109.68 45.6393C109.382 45.5985 109.104 45.5021 108.844 45.3499C108.595 45.1699 108.388 44.9112 108.225 44.5739ZM108.411 24.1286C108.655 24.0104 108.884 23.9106 109.099 23.8293C109.315 23.748 109.515 23.7084 109.702 23.7106C109.888 23.7128 110.064 23.7661 110.231 23.8706C110.397 23.9751 110.544 24.1585 110.672 24.4209C110.726 24.5334 110.785 24.6552 110.849 24.7864C110.913 24.9176 110.958 25.0579 110.984 25.2073C111.02 25.3288 111.023 25.4547 110.993 25.5848C110.955 25.6961 110.851 25.7927 110.682 25.8746C110.42 26.0019 110.159 26.0128 109.899 25.9072C109.658 25.7926 109.441 25.6316 109.248 25.4243C109.046 25.1983 108.872 24.9587 108.725 24.7054C108.579 24.452 108.475 24.2598 108.411 24.1286ZM132.937 32.5812C132.919 32.5437 132.934 32.4553 132.982 32.3162C133.031 32.177 133.078 32.0843 133.125 32.0383C133.191 31.9832 133.327 31.9056 133.533 31.8055C133.73 31.6868 133.937 31.5634 134.153 31.4355C134.387 31.2985 134.608 31.18 134.814 31.08C135.011 30.9612 135.147 30.8836 135.222 30.8472C135.477 31.372 135.624 31.9142 135.664 32.4737C135.713 33.0054 135.466 33.473 134.92 33.8765C134.695 34.0322 134.471 34.0715 134.248 33.9943C134.044 33.9081 133.85 33.7707 133.666 33.5821C133.482 33.3936 133.321 33.2053 133.184 33.0174C133.056 32.8015 132.974 32.6561 132.937 32.5812ZM128.998 21.7448C128.725 21.1825 128.532 20.6165 128.417 20.0467C128.294 19.4583 128.208 18.8749 128.159 18.2966C128.11 17.7183 128.07 17.1355 128.04 16.5482C128.028 15.9517 127.984 15.3595 127.907 14.7716C127.873 14.5103 127.799 14.0482 127.686 13.3853C127.582 12.6946 127.465 11.9757 127.334 11.2288C127.222 10.4727 127.109 9.76325 126.996 9.10035C126.873 8.41872 126.786 7.9518 126.733 7.6996C126.553 7.13842 126.61 6.65923 126.903 6.26205C127.207 5.83703 127.583 5.51537 128.033 5.29708C128.688 6.64656 129.105 8.03051 129.284 9.4489C129.472 10.8395 129.586 12.2431 129.625 13.6598C129.664 15.0766 129.717 16.4981 129.784 17.9245C129.861 19.3231 130.115 20.7051 130.546 22.0706L130.377 22.1524C129.74 22.4617 129.28 22.3258 128.998 21.7448Z" fill="black" fill-opacity="0.2"/>
<path d="M128.014 73.7761C126.639 74.4741 121.51 76.6268 116.905 77.2491C111.415 77.9909 105.339 75.1536 102.445 73.3184C99.4795 71.4384 106.547 77.0852 106.547 81.5852C106.547 86.0852 103.704 91.052 101.869 92.9599C100.899 93.8425 99.8524 94.5513 98.7738 95.2816" stroke="#181176" stroke-width="2" stroke-linecap="round"/>
<path d="M128.014 73.7761C126.639 74.4741 121.51 76.6268 116.905 77.2491C111.415 77.9909 105.339 75.1536 102.445 73.3184C99.4795 71.4384 106.547 77.0852 106.547 81.5852C106.547 86.0852 103.704 91.052 101.869 92.9599C100.899 93.8425 99.8524 94.5513 98.7738 95.2816" stroke="black" stroke-opacity="0.2" stroke-width="2" stroke-linecap="round"/>
<path d="M106.808 76.4519C106.901 76.6208 109.457 80.2332 117.485 89.7132C130.428 104.997 143.171 114.666 151.108 119.799C171.987 133.303 184.717 134.851 197.935 135.432C203.744 134.278 208.414 133.007 211.879 132.274C213.398 131.96 214.432 131.761 216.122 131.337" stroke="#181176" stroke-width="2" stroke-linecap="round"/>
<path d="M106.808 76.4519C106.901 76.6208 109.457 80.2332 117.485 89.7132C130.428 104.997 143.171 114.666 151.108 119.799C171.987 133.303 184.717 134.851 197.935 135.432C203.744 134.278 208.414 133.007 211.879 132.274C213.398 131.96 214.432 131.761 216.122 131.337" stroke="black" stroke-opacity="0.2" stroke-width="2" stroke-linecap="round"/>
</svg>
