<svg width="55" height="50" viewBox="0 0 55 50" fill="none" xmlns="http://www.w3.org/2000/svg">
<path d="M23.0713 22.3933C22.4543 21.8793 19.2857 18.6216 15.8905 12.4468C13.562 8.21184 16.0044 4.12147 17.331 2.65148C18.3704 1.49982 19.7853 1.14768 22.0112 1.03497C25.8386 0.841162 28.8089 1.46489 29.8422 2.61087C32.1237 5.14108 31.2463 13.7989 29.2712 20.6138C28.4376 23.49 25.9953 24.9137 24.803 25.7266C24.2132 26.1287 23.4929 26.278 23.2924 26.024C21.6017 23.8825 29.2332 17.2907 35.7813 12.1234C39.7276 9.00928 45.3614 9.87491 49.3884 11.2484C51.8727 12.0957 52.8112 14.5094 53.2461 16.1969C53.8295 18.4603 52.8433 20.5783 51.4964 21.9986C48.6405 25.0102 38.7687 25.9199 28.9029 26.33C27.4728 26.3895 26.8672 25.8968 27.3666 25.8694C35.4234 25.4282 45.134 30.1871 47.5832 32.3448C48.1889 32.8784 48.427 33.6484 48.6343 34.5338C48.8417 35.4192 48.8848 36.5001 48.0167 37.8364C45.9005 41.0942 42.1555 43.1432 39.6679 44.4119C37.9107 45.3081 35.9087 45.0578 33.9778 44.8551C32.2348 44.6722 30.8246 43.3157 29.393 41.8052C25.2203 37.4027 25.3273 30.8124 25.3114 29.0845C25.2945 27.2455 25.8187 35.7368 25.0751 39.6241C24.1311 44.5586 17.4204 46.7896 12.5341 48.359C11.4275 48.7145 10.1444 48.5787 9.25285 48.3457C6.24678 47.5602 5.45577 43.7119 4.91483 39.6056C4.28852 34.8512 5.17266 30.8918 5.75499 29.19C6.94582 25.7097 12.5514 25.0574 16.8531 24.8898C24.2176 24.603 3.0872 24.3197 2.32594 23.0902C0.352717 19.9032 0.707824 11.9517 2.56014 8.14335C4.19343 4.78537 10.3455 6.501 13.0648 6.77354C16.6474 7.1326 17.7578 12.7253 19.5343 16.2575C20.4934 17.8453 21.5383 19.7156 22.4976 21.7153C22.9073 22.6068 23.1605 23.2479 23.5629 24.0543" stroke="#EDFB86" stroke-width="2" stroke-linecap="round"/>
<path d="M25.8586 26.7362C24.8616 26.4211 22.119 24.6173 19.7155 21.1732C18.8099 19.8754 18.8505 18.2688 19.2052 16.8576C19.3636 16.2274 20.2694 16.0723 21.0671 16.0141C22.7259 15.8931 24.2937 16.5657 25.5209 17.4289C30.4043 20.8641 26.7936 31.3723 26.7669 32.6082C26.7535 33.229 27.2653 33.7981 27.7862 34.1915C28.3072 34.5848 28.9559 34.7752 29.6256 34.3973C33.1537 32.4067 33.1952 29.0872 33.3504 27.9037C33.4276 27.3146 32.7343 26.7694 32.0878 26.4432C27.8554 24.3078 20.7326 26.1373 18.4551 27.3338C17.9168 27.6167 18.0014 28.4298 18.3092 28.8479C19.9474 31.0732 25.0047 29.2806 28.6769 27.93C31.5255 26.8823 30.8477 21.8075 31.6329 18.7108C31.7916 18.0848 32.4541 17.6894 33.2296 17.446C34.0052 17.2026 35.0693 17.1972 35.715 17.5171C36.8901 18.0994 36.7609 20.2831 36.457 22.1766C36.1484 22.9345 35.5265 23.2802 33.8526 23.8128C32.1787 24.3453 29.4716 25.0543 25.7419 25.8079" stroke="#EF891C" stroke-width="2" stroke-linecap="round"/>
</svg>
