<svg width="74" height="68" viewBox="0 0 74 68" fill="none" xmlns="http://www.w3.org/2000/svg">
<path d="M34.8349 38.2252C33.2452 37.5783 28.7514 34.2807 23.5617 26.083C19.2345 19.2475 19.8103 10.8171 21.5042 4.38686C21.8224 3.17889 22.9126 2.42135 23.8543 1.82277C24.796 1.22419 25.897 0.944356 27.0772 1.00916C28.2573 1.07397 29.4834 1.49189 30.4443 2.33044C32.4437 4.07521 33.0412 7.04259 33.5663 15.8866C35.746 52.5924 36.621 59.5036 39.9278 64.3913C41.3365 66.4734 44.0242 66.9036 46.2368 66.9963C48.6105 67.0958 50.5957 65.1644 51.9712 63.1552C53.2297 61.3168 53.1391 58.4894 52.584 54.8742C51.3141 46.6046 44.1508 45.5089 39.2675 43.4109C34.8737 41.5233 16.8912 41.8355 4.06928 40.4263C2.60487 40.2653 1.82551 39.1861 1.33809 38.0046C0.850677 36.8232 0.789097 35.1624 1.83876 33.4992C4.27525 29.6384 8.4607 28.062 10.8877 27.2386C16.5206 25.3277 25.1412 28.3336 36.7622 34.1308C47.0689 39.2724 60.9889 39.925 68.9067 39.6776C70.5854 39.6252 71.3439 38.4021 71.8349 37.3644C72.8321 35.257 72.3732 32.7052 71.5214 30.6122C69.7832 26.3409 62.4757 26.0037 56.6184 25.061C48.2988 23.7221 43.4906 28.2854 36.7767 32.651C23.5263 41.2667 17.9705 44.8477 14.6926 50.4979C12.8909 53.6036 12.7128 58.0207 13.4446 61.5581C14.0244 64.3609 20.6606 62.1797 25.5096 60.6162C29.0382 59.4785 30.9833 57.3555 32.4045 55.3733C38.1016 47.4269 38.2508 32.1089 39.3197 27.329C40.799 20.7133 44.1858 12.1535 47.1543 6.98559C47.7829 5.89122 48.4077 5.02229 49.2431 4.39543C50.9468 3.11696 53.6118 3.23892 55.9881 3.87517C57.0993 4.17271 57.7018 5.22734 58.0648 6.49587C59.7324 12.3232 52.4394 17.814 47.6421 21.7571C46.5796 22.5625 45.6466 23.2202 44.1443 24.6648C42.642 26.1093 40.5987 28.3207 36.5595 32.9337" stroke="#EF891C" stroke-width="2" stroke-linecap="round"/>
</svg>
