<svg width="52" height="91" viewBox="0 0 52 91" fill="none" xmlns="http://www.w3.org/2000/svg">
<path d="M27.8419 72.4129C26.8737 72.0235 24.1365 70.038 20.9755 65.1022C18.3398 60.9867 18.6905 55.9107 19.7223 52.0392C19.9161 51.3119 20.5801 50.8558 21.1537 50.4954C21.7273 50.135 22.3979 49.9665 23.1168 50.0055C23.8356 50.0445 24.5823 50.2961 25.1676 50.801C26.3855 51.8515 26.7494 53.6382 27.0692 58.9631C28.3969 81.0633 28.9298 85.2244 30.944 88.1673C31.802 89.4209 33.439 89.6799 34.7867 89.7358C36.2325 89.7956 37.4417 88.6328 38.2794 87.4231C39.046 86.3162 38.9908 84.6138 38.6527 82.4371C37.8792 77.4581 33.5162 76.7984 30.5417 75.5352C27.8655 74.3987 16.9126 74.5867 9.10287 73.7382C8.21091 73.6413 7.73621 72.9914 7.43933 72.2801C7.14245 71.5688 7.10494 70.5689 7.74428 69.5674C9.22832 67.2429 11.7776 66.2938 13.2559 65.798C16.6868 64.6475 21.9376 66.4573 29.0158 69.9477C35.2935 73.0434 43.772 73.4364 48.5947 73.2874C49.6172 73.2559 50.0792 72.5194 50.3783 71.8946C50.9856 70.6258 50.7061 69.0894 50.1873 67.8292C49.1286 65.2575 44.6776 65.0544 41.11 64.4869C36.0426 63.6808 33.114 66.4283 29.0247 69.0567C20.9539 74.2442 17.5699 76.4003 15.5734 79.8022C14.476 81.6721 14.3675 84.3316 14.8133 86.4615C15.1665 88.149 19.2085 86.8357 22.162 85.8944C24.3112 85.2093 25.496 83.9311 26.3616 82.7377C29.8317 77.9532 29.9225 68.7303 30.5735 65.8524C31.4746 61.8692 33.5375 56.7154 35.3455 53.6039C35.7284 52.9449 36.109 52.4218 36.6178 52.0443C37.6555 51.2746 39.2788 51.348 40.7261 51.7311C41.4029 51.9102 41.7699 52.5452 41.991 53.309C43.0067 56.8176 38.5646 60.1235 35.6427 62.4976C34.9955 62.9825 34.4272 63.3786 33.5122 64.2483C32.5971 65.1181 31.3526 66.4495 28.8924 69.227" stroke="#EDFB86" stroke-width="2" stroke-linecap="round"/>
<path d="M16.2615 17.3565C15.5445 17.0723 13.5175 15.6233 11.1767 12.0213C9.22481 9.01784 9.48452 5.31354 10.2486 2.48815C10.3921 1.95737 10.8838 1.62452 11.3086 1.3615C11.7334 1.09849 12.23 0.975535 12.7623 1.00401C13.2947 1.03248 13.8477 1.21612 14.2811 1.58457C15.1829 2.35121 15.4524 3.65506 15.6893 7.54106C16.6725 23.6694 17.0672 26.7061 18.5587 28.8537C19.1941 29.7686 20.4064 29.9576 21.4044 29.9984C22.4751 30.0421 23.3706 29.1935 23.991 28.3106C24.5587 27.5028 24.5178 26.2605 24.2674 24.672C23.6946 21.0384 20.4635 20.5569 18.2609 19.6351C16.279 18.8057 8.16788 18.9429 2.38443 18.3236C1.72389 18.2529 1.37235 17.7787 1.1525 17.2596C0.932647 16.7405 0.904871 16.0107 1.37833 15.2799C2.47733 13.5835 4.36521 12.8909 5.45991 12.5291C8.00068 11.6894 11.8891 13.0102 17.1308 15.5575C21.7797 17.8166 28.0585 18.1034 31.6299 17.9947C32.3871 17.9717 32.7292 17.4342 32.9507 16.9783C33.4004 16.0523 33.1935 14.9311 32.8093 14.0114C32.0252 12.1346 28.7291 11.9864 26.0871 11.5723C22.3345 10.9839 20.1658 12.989 17.1374 14.9072C11.1607 18.6929 8.65466 20.2664 7.17617 22.7491C6.36349 24.1137 6.28315 26.0546 6.61324 27.6088C6.87478 28.8404 9.86807 27.882 12.0553 27.195C13.6469 26.6951 14.5242 25.7623 15.1652 24.8913C17.735 21.3997 17.8023 14.669 18.2844 12.5688C18.9517 9.6619 20.4793 5.90078 21.8183 3.63002C22.1018 3.14916 22.3836 2.76735 22.7604 2.49192C23.5289 1.93016 24.731 1.98375 25.8028 2.26332C26.304 2.39405 26.5758 2.85745 26.7396 3.41484C27.4917 5.97533 24.2022 8.38794 22.0383 10.1205C21.5591 10.4744 21.1382 10.7634 20.4606 11.3981C19.783 12.0329 18.8613 13.0045 17.0394 15.0315" stroke="#EF891C" stroke-width="2" stroke-linecap="round"/>
</svg>
