<svg width="53" height="67" viewBox="0 0 53 67" fill="none" xmlns="http://www.w3.org/2000/svg">
<path d="M30.9549 21.8687C30.0644 21.506 27.5468 19.6574 24.6395 15.0617C22.2153 11.2297 22.5379 6.50351 23.4868 2.89869C23.6651 2.2215 24.2758 1.79682 24.8034 1.46125C25.331 1.12568 25.9478 0.968806 26.6089 1.00514C27.2701 1.04147 27.9569 1.27575 28.4953 1.74585C29.6154 2.72398 29.9501 4.38751 30.2443 9.34551C31.4654 29.923 31.9556 33.7974 33.8081 36.5375C34.5973 37.7048 36.103 37.946 37.3425 37.9979C38.6723 38.0537 39.7845 36.971 40.555 35.8446C41.2601 34.814 41.2093 33.2289 40.8983 31.2022C40.1869 26.5662 36.1739 25.9519 33.4382 24.7758C30.9767 23.7176 20.9026 23.8927 13.7195 23.1026C12.8991 23.0124 12.4625 22.4073 12.1894 21.745C11.9163 21.0827 11.8818 20.1517 12.4699 19.2192C13.8349 17.0549 16.1796 16.1711 17.5393 15.7095C20.6949 14.6382 25.5243 16.3234 32.0346 19.5733C37.8086 22.4557 45.6069 22.8216 50.0426 22.6829C50.9831 22.6535 51.408 21.9678 51.6831 21.3861C52.2417 20.2047 51.9846 18.7742 51.5074 17.6008C50.5337 15.2063 46.4398 15.0172 43.1585 14.4888C38.4977 13.7382 35.8041 16.2964 32.0428 18.7437C24.6196 23.5738 21.5072 25.5813 19.6709 28.7488C18.6615 30.4899 18.5617 32.9662 18.9717 34.9492C19.2965 36.5205 23.0142 35.2977 25.7308 34.4212C27.7075 33.7834 28.7972 32.5932 29.5934 31.482C32.785 27.0272 32.8686 18.4398 33.4674 15.7602C34.2962 12.0514 36.1935 7.25274 37.8565 4.35556C38.2087 3.74205 38.5587 3.25492 39.0267 2.9035C39.9812 2.18678 41.4741 2.25515 42.8054 2.61184C43.4279 2.77864 43.7654 3.36987 43.9688 4.08102C44.903 7.34785 40.8173 10.426 38.1298 12.6366C37.5346 13.088 37.0119 13.4568 36.1703 14.2666C35.3286 15.0764 34.1839 16.3161 31.9211 18.9022" stroke="#EDFB86" stroke-width="2" stroke-linecap="round"/>
<path d="M11.4252 57.2804C10.9354 57.0843 9.55077 56.0851 7.95173 53.6009C6.61842 51.5296 6.79582 48.9749 7.31776 47.0263C7.41581 46.6603 7.7517 46.4307 8.04187 46.2493C8.33204 46.0679 8.67127 45.9831 9.03491 46.0028C9.39854 46.0224 9.77631 46.1491 10.0724 46.4032C10.6885 46.9319 10.8725 47.8311 11.0344 50.5111C11.706 61.6341 11.9756 63.7284 12.9945 65.2095C13.4285 65.8404 14.2566 65.9708 14.9384 65.9989C15.6698 66.029 16.2814 65.4438 16.7053 64.8349C17.093 64.2778 17.0651 63.421 16.8941 62.3255C16.5028 59.8196 14.2957 59.4875 12.791 58.8518C11.4372 58.2798 5.89642 58.3744 1.94571 57.9473C1.49449 57.8986 1.25436 57.5715 1.10417 57.2135C0.953991 56.8555 0.935017 56.3522 1.25844 55.8482C2.00917 54.6783 3.29879 54.2006 4.04659 53.9511C5.7822 53.372 8.43839 54.2829 12.0191 56.0396C15.1948 57.5977 19.4838 57.7955 21.9234 57.7205C22.4407 57.7046 22.6744 57.334 22.8257 57.0195C23.1329 56.3809 22.9915 55.6077 22.7291 54.9734C22.1935 53.6791 19.9419 53.5769 18.1372 53.2912C15.5737 52.8855 14.0922 54.2683 12.0235 55.5912C7.9408 58.202 6.22894 59.2872 5.21898 60.9994C4.66383 61.9405 4.60895 63.279 4.83444 64.3509C5.0131 65.2003 7.05783 64.5393 8.55191 64.0655C9.63914 63.7208 10.2385 63.0774 10.6764 62.4768C12.4318 60.0688 12.4777 55.4269 12.8071 53.9785C13.2629 51.9737 14.3064 49.3799 15.2211 47.8138C15.4148 47.4822 15.6073 47.2189 15.8647 47.0289C16.3896 46.6415 17.2108 46.6785 17.9429 46.8713C18.2853 46.9614 18.471 47.281 18.5828 47.6654C19.0966 49.4313 16.8495 51.0951 15.3714 52.29C15.044 52.5341 14.7565 52.7334 14.2936 53.1711C13.8307 53.6089 13.2012 54.279 11.9566 55.6769" stroke="#E92B61" stroke-width="2" stroke-linecap="round"/>
</svg>
